<?xml version="1.0" standalone="no"?>
<!DOCTYPE svg PUBLIC "-//W3C//DTD SVG 20010904//EN"
 "http://www.w3.org/TR/2001/REC-SVG-20010904/DTD/svg10.dtd">
<svg version="1.0" xmlns="http://www.w3.org/2000/svg"
 width="24" height="24" viewBox="0 0 1010.000000 958.000000"
 preserveAspectRatio="xMidYMid meet">
<defs>
    <linearGradient id="gradient" x1="0%" y1="0%" x2="100%" y2="0%">
      <stop offset="10%" style="stop-color: rgba(135,126,255,1)" />
      <stop offset="90%" style="stop-color: rgba(210,173,96,1)" />
    </linearGradient>
  </defs>
<g transform="translate(0.000000,1000.000000) scale(0.100000,-0.100000)"
fill="url(#gradient)" stroke="10">
<path d="M4650 8709 c-41 -5 -111 -16 -155 -24 -44 -8 -128 -21 -186 -29 -59
-8 -124 -22 -145 -30 -22 -9 -74 -22 -116 -30 -43 -8 -99 -24 -124 -36 -26
-11 -75 -25 -110 -30 -74 -12 -90 -17 -124 -41 -14 -9 -45 -22 -69 -29 -23 -6
-68 -24 -99 -39 -32 -16 -72 -31 -90 -35 -19 -3 -45 -15 -59 -26 -14 -11 -43
-25 -64 -30 -20 -6 -60 -25 -88 -43 -98 -63 -137 -85 -173 -96 -20 -7 -42 -19
-49 -27 -7 -9 -33 -27 -58 -40 -90 -49 -138 -79 -170 -106 -18 -16 -36 -28
-41 -28 -4 0 -41 -27 -80 -60 -39 -33 -76 -60 -80 -60 -38 0 -537 -486 -678
-660 -15 -19 -63 -82 -105 -140 -42 -58 -88 -119 -102 -136 -14 -18 -32 -48
-40 -67 -8 -20 -19 -39 -25 -42 -6 -4 -21 -28 -34 -54 -14 -26 -31 -53 -40
-60 -8 -7 -20 -29 -27 -49 -6 -20 -18 -44 -25 -53 -8 -9 -27 -42 -43 -75 -16
-33 -36 -66 -45 -73 -9 -7 -16 -21 -16 -30 0 -10 -16 -48 -35 -87 -19 -38 -35
-75 -35 -82 0 -7 -12 -36 -26 -64 -14 -28 -33 -74 -41 -102 -8 -28 -23 -65
-34 -82 -10 -17 -26 -67 -35 -110 -9 -43 -23 -92 -31 -107 -8 -16 -23 -67 -33
-115 -11 -48 -26 -106 -34 -130 -9 -24 -20 -82 -26 -130 -6 -48 -17 -112 -25
-142 -29 -114 -45 -342 -45 -647 1 -334 12 -527 34 -590 8 -24 22 -99 31 -168
9 -69 25 -145 35 -168 10 -23 23 -78 29 -122 6 -44 22 -102 35 -130 14 -27 30
-79 36 -115 7 -35 21 -77 31 -92 11 -15 26 -52 34 -81 8 -30 23 -69 34 -88 11
-19 25 -54 31 -79 7 -25 20 -57 31 -71 10 -14 27 -51 39 -81 11 -31 27 -61 35
-68 8 -6 19 -28 26 -48 6 -20 21 -50 33 -67 11 -16 31 -50 44 -75 26 -53 71
-125 127 -205 22 -32 49 -72 60 -89 46 -73 82 -110 123 -127 65 -28 110 -13
163 53 36 46 40 56 34 87 -4 20 -15 45 -26 57 -10 11 -19 25 -19 32 0 6 -17
31 -37 55 -21 24 -47 59 -58 77 -11 19 -35 56 -52 84 -18 28 -44 74 -59 101
-32 64 -94 173 -115 205 -9 14 -20 41 -23 61 -4 21 -13 42 -21 49 -8 6 -24 37
-35 68 -12 32 -30 71 -39 87 -10 17 -24 53 -30 80 -7 28 -23 68 -36 90 -12 22
-28 67 -34 100 -7 33 -21 82 -32 108 -11 27 -27 88 -35 135 -8 48 -23 112 -34
143 -10 31 -26 121 -35 200 -8 79 -22 178 -30 219 -24 120 -21 583 5 753 11
73 26 193 34 267 9 86 22 151 34 180 11 25 25 78 31 119 7 40 20 92 30 115 10
22 24 68 31 101 6 33 22 78 34 100 13 22 28 62 35 89 7 27 21 67 32 89 12 22
26 58 33 81 7 22 25 59 39 80 15 21 27 47 27 56 0 9 12 35 26 56 15 21 33 57
41 79 7 21 22 49 32 60 10 11 24 35 31 53 7 18 26 49 41 69 16 20 29 40 29 46
0 6 12 26 28 46 15 19 36 49 47 67 44 69 73 110 89 123 10 8 24 27 31 41 51
98 438 507 599 633 15 12 45 36 65 52 20 17 54 43 76 58 68 47 109 77 131 98
11 10 25 19 30 19 5 0 26 14 46 30 20 17 53 37 72 45 19 8 38 19 41 25 6 10
82 53 163 93 21 10 48 24 62 32 75 42 228 115 240 115 7 0 32 11 55 25 23 13
64 29 91 35 27 6 69 21 94 34 25 13 72 29 105 36 33 6 80 20 103 31 24 10 81
25 127 33 46 8 104 24 129 35 31 15 82 24 163 31 65 5 177 19 248 31 110 18
170 21 385 20 225 -1 473 -20 502 -37 4 -2 61 -8 126 -13 80 -7 136 -16 168
-30 27 -11 89 -27 139 -36 49 -9 110 -25 135 -35 25 -10 71 -24 103 -30 32 -7
83 -25 114 -41 30 -16 65 -29 78 -29 13 0 47 -13 77 -28 30 -16 67 -32 84 -36
16 -4 45 -18 64 -31 19 -13 55 -31 80 -40 24 -8 51 -22 60 -29 8 -8 38 -23 65
-33 28 -11 68 -32 89 -46 21 -15 44 -27 51 -27 6 0 27 -13 45 -30 18 -16 39
-30 45 -30 7 0 20 -10 31 -21 10 -12 39 -31 64 -42 41 -18 61 -32 140 -97 14
-11 37 -28 51 -38 79 -51 166 -127 368 -318 133 -126 141 -132 179 -138 63
-10 105 5 124 44 36 72 40 104 19 149 -10 23 -34 57 -52 74 -19 18 -53 53 -75
77 -23 25 -74 74 -115 110 -40 36 -87 79 -104 96 -16 16 -41 38 -55 47 -26 18
-96 70 -198 147 -33 25 -74 54 -93 65 -18 11 -53 34 -79 50 -26 17 -61 39 -80
50 -18 11 -44 29 -59 41 -14 11 -98 55 -186 98 -88 43 -171 84 -185 91 -70 39
-217 103 -266 115 -23 6 -61 21 -85 34 -24 14 -66 28 -94 32 -27 3 -67 15 -88
26 -20 10 -81 27 -135 38 -53 11 -113 27 -133 35 -20 7 -85 21 -145 30 -60 9
-134 22 -164 30 -30 7 -104 18 -164 24 -128 13 -756 12 -866 0z"/>
<path d="M5940 7693 c-183 -20 -310 -78 -477 -220 -45 -38 -62 -84 -55 -145 3
-30 14 -46 52 -78 32 -27 57 -40 78 -40 29 0 125 51 166 89 12 10 37 26 56 36
19 10 44 26 56 36 55 51 229 44 313 -12 25 -16 47 -29 51 -29 3 0 23 -20 43
-45 27 -32 43 -65 56 -117 11 -40 17 -75 16 -78 -2 -3 -9 -53 -15 -110 -9 -80
-20 -123 -46 -181 -19 -42 -34 -80 -34 -85 0 -5 -23 -45 -50 -89 -27 -44 -61
-100 -75 -125 -40 -70 -122 -184 -160 -224 -11 -12 -33 -39 -48 -61 -54 -79
-59 -85 -215 -275 -15 -19 -39 -52 -51 -72 -12 -21 -26 -38 -30 -38 -4 0 -15
-15 -26 -32 -10 -18 -30 -45 -44 -59 -14 -15 -53 -61 -86 -104 -33 -42 -76
-96 -95 -120 -19 -23 -51 -64 -70 -89 -19 -26 -48 -64 -65 -85 -16 -21 -48
-62 -70 -91 -80 -105 -104 -136 -130 -165 -42 -49 -149 -188 -169 -220 -11
-16 -27 -39 -37 -50 -59 -68 -138 -164 -155 -190 -16 -26 -54 -74 -162 -205
-16 -19 -35 -46 -42 -60 -12 -24 -41 -61 -95 -125 -41 -49 -98 -119 -135 -169
-80 -107 -100 -132 -124 -161 -14 -16 -43 -52 -65 -78 -23 -27 -41 -52 -41
-57 0 -5 -18 -30 -40 -57 -22 -26 -51 -61 -65 -78 -13 -16 -37 -46 -53 -65
-16 -19 -55 -70 -88 -113 -32 -43 -74 -97 -91 -120 -18 -23 -43 -56 -55 -73
-43 -60 -193 -247 -226 -282 -17 -19 -40 -47 -49 -63 -10 -16 -25 -29 -35 -29
-28 0 -23 59 7 100 14 19 30 52 36 73 6 22 24 57 40 79 16 23 29 46 29 53 0 7
12 30 26 51 15 21 31 53 36 71 5 18 20 46 34 63 14 16 30 45 35 63 5 19 20 47
33 62 14 16 27 42 30 59 3 17 19 47 36 66 16 19 32 47 35 62 4 15 15 38 25 51
10 13 30 48 45 78 14 30 43 86 65 124 21 39 41 77 45 85 4 8 16 33 27 55 30
63 66 128 87 155 10 14 24 42 31 64 12 36 46 98 96 176 13 19 30 55 39 80 8
24 22 51 30 60 8 8 22 33 32 55 10 22 28 54 39 70 12 17 27 48 34 70 7 22 18
46 24 54 17 21 72 120 95 171 12 25 26 52 31 60 6 8 21 37 34 63 13 26 31 56
40 65 8 10 23 38 31 62 9 25 23 56 33 70 20 29 60 102 97 180 15 30 35 66 44
80 10 14 24 41 30 61 6 20 20 44 31 54 11 10 26 39 35 65 9 27 22 54 30 60 8
6 22 33 31 58 10 26 25 56 35 67 10 11 27 40 38 65 12 25 32 65 46 89 20 35
25 58 25 111 0 77 -16 107 -76 135 -80 38 -150 -13 -229 -167 -28 -57 -64
-121 -79 -142 -14 -21 -26 -44 -26 -51 0 -7 -11 -28 -24 -48 -13 -19 -27 -46
-31 -58 -4 -13 -18 -38 -31 -56 -13 -17 -33 -56 -44 -87 -12 -31 -26 -58 -31
-62 -6 -3 -21 -29 -35 -57 -13 -29 -31 -63 -39 -77 -8 -14 -23 -41 -32 -61
-10 -20 -35 -67 -56 -105 -57 -103 -63 -116 -82 -154 -23 -49 -77 -144 -92
-162 -7 -8 -20 -34 -28 -58 -9 -24 -22 -51 -30 -60 -7 -8 -23 -40 -35 -72 -11
-31 -27 -61 -34 -67 -8 -7 -40 -62 -71 -124 -31 -62 -74 -143 -96 -182 -21
-38 -50 -93 -63 -122 -14 -28 -29 -54 -35 -57 -5 -3 -17 -28 -27 -54 -9 -26
-25 -56 -35 -67 -10 -11 -25 -40 -34 -65 -9 -24 -22 -51 -29 -60 -19 -21 -106
-191 -106 -206 0 -7 -11 -26 -25 -42 -14 -17 -32 -47 -41 -69 -9 -21 -25 -50
-36 -65 -10 -15 -24 -42 -30 -60 -6 -18 -19 -44 -28 -58 -10 -14 -45 -77 -78
-140 -33 -63 -75 -142 -93 -175 -17 -33 -41 -78 -51 -100 -10 -22 -25 -51 -33
-65 -8 -14 -24 -43 -35 -66 -10 -22 -29 -52 -40 -67 -11 -14 -27 -45 -36 -69
-8 -23 -22 -54 -32 -68 -20 -28 -58 -98 -102 -185 -33 -64 -88 -167 -107 -200
-7 -11 -21 -40 -33 -65 -24 -51 -80 -151 -96 -171 -6 -8 -19 -37 -28 -65 -9
-29 -25 -59 -36 -69 -10 -9 -22 -30 -25 -46 -4 -16 -17 -42 -30 -57 -13 -16
-31 -48 -41 -73 -9 -24 -23 -51 -29 -59 -13 -15 -56 -93 -88 -158 -10 -20 -24
-48 -32 -62 -8 -14 -24 -45 -36 -70 -12 -25 -32 -58 -45 -73 -13 -16 -24 -34
-24 -41 0 -7 -18 -48 -40 -91 -44 -86 -50 -132 -26 -190 8 -19 28 -41 45 -49
40 -21 119 -20 152 2 27 17 95 97 137 158 12 19 26 34 30 34 5 0 18 18 31 40
18 33 28 40 52 40 37 0 81 -22 134 -67 22 -18 54 -45 70 -59 77 -65 117 -93
144 -99 15 -3 41 -19 56 -35 16 -17 34 -30 41 -30 6 0 24 -10 39 -22 36 -29
107 -71 165 -99 131 -62 211 -102 216 -110 3 -5 31 -16 62 -25 31 -9 72 -24
90 -35 18 -10 58 -26 89 -35 31 -9 76 -27 99 -39 23 -12 68 -26 100 -30 32 -4
79 -17 104 -30 25 -13 87 -30 140 -38 52 -8 122 -24 155 -35 33 -11 114 -25
180 -31 120 -12 201 -23 285 -42 26 -6 205 -11 425 -11 339 0 392 3 490 21 61
11 178 25 260 32 110 8 167 18 212 35 34 12 105 28 158 34 54 6 112 18 133 29
20 10 72 26 115 35 42 8 90 22 107 31 16 8 59 22 96 31 36 8 91 28 121 44 31
17 65 30 77 30 12 0 48 13 81 30 33 16 65 30 72 30 15 0 302 146 322 164 9 7
34 23 56 35 22 12 55 32 72 44 18 12 61 40 95 62 87 55 153 104 257 190 20 17
53 43 74 58 42 31 346 332 362 358 17 28 75 103 105 137 17 18 30 37 30 42 0
5 11 19 24 32 32 30 68 79 106 148 17 30 45 78 63 106 18 28 41 65 52 83 11
18 30 48 42 67 12 18 29 55 38 81 9 26 25 64 35 83 49 96 100 207 100 220 0 8
11 38 24 67 13 28 30 77 36 110 7 32 23 79 36 105 14 27 31 81 39 122 7 41 21
88 30 105 8 17 22 75 30 128 8 54 23 126 34 160 13 39 24 117 31 210 6 81 16
168 21 193 27 116 34 232 33 525 0 281 -2 318 -21 400 -12 50 -27 130 -34 180
-6 49 -22 118 -36 153 -13 35 -29 87 -35 116 -6 28 -21 74 -33 101 -12 28 -25
66 -28 85 -4 19 -18 50 -31 70 -14 19 -30 55 -36 80 -7 24 -23 57 -36 73 -13
16 -24 33 -24 38 0 29 -173 289 -235 354 -22 23 -63 66 -91 96 -104 113 -214
202 -291 238 -22 11 -45 26 -50 34 -14 24 -269 149 -343 168 -25 6 -70 21
-100 34 -30 12 -105 30 -166 38 -61 9 -124 22 -140 28 -17 7 -106 14 -215 17
l-185 4 -48 -48 c-44 -46 -47 -52 -43 -93 6 -56 32 -90 94 -123 43 -22 67 -27
155 -31 170 -7 414 -43 452 -66 17 -11 52 -23 76 -27 25 -4 65 -17 90 -30 25
-13 70 -35 100 -49 96 -45 243 -137 269 -169 7 -9 18 -16 23 -16 11 0 162
-149 193 -191 11 -14 40 -53 65 -85 83 -109 90 -119 120 -179 17 -33 37 -71
44 -85 36 -64 86 -178 92 -209 3 -19 17 -54 29 -77 13 -24 28 -76 34 -116 7
-40 21 -93 32 -118 20 -43 36 -143 58 -370 14 -135 13 -517 0 -542 -6 -11 -15
-86 -20 -167 -11 -175 -25 -290 -44 -351 -8 -25 -19 -83 -26 -130 -6 -47 -20
-107 -30 -135 -10 -27 -25 -90 -35 -140 -9 -49 -26 -105 -36 -123 -11 -18 -26
-59 -34 -91 -7 -32 -22 -74 -32 -92 -11 -19 -25 -58 -32 -86 -7 -29 -21 -64
-31 -77 -11 -14 -29 -51 -39 -82 -11 -31 -28 -70 -39 -88 -10 -17 -22 -42 -26
-56 -4 -14 -16 -34 -26 -46 -11 -11 -30 -39 -42 -62 -12 -22 -37 -68 -54 -101
-18 -33 -37 -62 -43 -66 -6 -3 -20 -25 -31 -48 -12 -23 -43 -67 -69 -97 -26
-30 -52 -66 -59 -79 -35 -64 -311 -350 -433 -446 -83 -66 -104 -84 -149 -122
-20 -18 -41 -33 -47 -33 -6 0 -23 -11 -39 -24 -15 -13 -47 -33 -70 -45 -24
-12 -43 -26 -43 -31 0 -5 -19 -19 -42 -31 -24 -12 -52 -29 -63 -39 -11 -10
-39 -23 -61 -29 -23 -6 -48 -19 -55 -28 -8 -9 -34 -25 -59 -36 -25 -11 -56
-27 -70 -37 -14 -9 -43 -23 -65 -30 -22 -7 -58 -23 -80 -35 -22 -13 -56 -26
-75 -30 -19 -4 -60 -19 -90 -35 -30 -15 -75 -31 -100 -35 -25 -4 -67 -17 -95
-30 -27 -12 -78 -27 -112 -34 -35 -6 -83 -21 -107 -32 -25 -10 -95 -26 -157
-34 -62 -8 -146 -24 -186 -36 -124 -34 -677 -71 -953 -62 -259 8 -615 44 -673
67 -17 8 -78 21 -135 30 -56 9 -120 25 -141 36 -21 10 -69 24 -106 30 -37 6
-89 22 -116 35 -27 14 -71 30 -98 36 -27 6 -55 17 -61 24 -6 8 -35 21 -63 30
-46 14 -175 72 -217 96 -8 5 -41 22 -72 39 -31 16 -59 34 -62 39 -4 5 -30 21
-59 36 -61 30 -109 60 -158 98 -20 15 -41 27 -47 27 -6 0 -32 18 -59 40 -85
70 -97 79 -132 102 -19 13 -43 37 -54 55 -22 39 -20 43 66 153 34 44 78 100
97 125 63 84 104 136 165 211 33 40 76 94 95 120 19 25 49 63 65 84 17 21 46
59 65 85 19 26 49 62 65 81 17 18 44 51 60 74 17 22 47 61 68 86 20 25 37 49
37 53 0 4 15 23 33 43 17 20 48 58 67 84 19 26 44 57 56 68 12 12 29 37 39 56
9 19 28 46 42 60 21 22 71 83 179 217 17 21 39 51 50 68 10 16 28 39 39 50 11
12 38 45 60 74 22 30 47 61 55 70 9 9 28 34 43 56 49 72 74 104 128 167 30 33
63 73 74 88 11 15 54 71 95 125 41 54 82 107 90 119 39 55 178 229 238 296 17
21 32 41 32 45 0 4 14 24 31 44 82 97 139 170 163 209 14 23 31 42 36 42 5 0
17 15 26 33 9 17 31 48 48 68 39 45 89 107 98 122 3 6 18 25 32 41 67 80 96
119 96 126 0 4 29 43 65 85 36 42 65 79 65 83 0 4 26 34 58 67 33 33 67 76 77
95 10 19 26 44 37 55 21 22 75 89 128 161 19 25 50 64 68 86 17 22 32 44 32
49 0 7 24 36 94 109 13 14 29 36 36 50 7 14 27 42 44 63 17 22 59 73 93 115
34 43 73 91 86 107 13 17 32 46 42 65 9 19 25 44 34 55 24 28 101 159 101 172
0 6 9 22 20 36 12 14 29 51 40 81 10 30 25 65 34 78 8 12 27 77 41 143 48 223
49 230 37 287 -25 119 -54 205 -82 245 -17 23 -30 45 -30 50 0 9 -81 93 -132
136 -64 55 -125 87 -197 102 -40 8 -81 20 -91 25 -18 10 -41 10 -110 3z
m-2734 -4891 c-13 -12 -18 9 -10 45 l8 38 4 -39 c2 -21 1 -41 -2 -44z"/>
<path d="M4469 7426 c-55 -41 -59 -50 -59 -129 0 -61 25 -136 49 -151 6 -4 18
-23 26 -42 16 -40 171 -203 229 -243 64 -43 139 -89 171 -105 95 -45 178 -77
235 -90 36 -9 81 -23 98 -32 18 -9 65 -20 105 -25 95 -12 102 -19 89 -105 -16
-109 -7 -140 55 -180 l52 -33 61 30 c33 17 67 40 76 52 49 70 65 96 83 128 11
19 27 41 36 49 9 8 26 32 37 54 12 23 29 52 40 66 36 47 88 130 88 139 0 5 15
27 33 49 37 44 73 148 64 184 -13 51 -51 92 -90 99 -52 8 -118 -5 -134 -28 -7
-10 -21 -27 -30 -38 -23 -27 -102 -144 -119 -176 -11 -22 -23 -28 -68 -33 -69
-9 -202 10 -281 39 -33 13 -80 26 -105 30 -25 4 -65 18 -90 32 -25 13 -64 31
-87 39 -113 39 -294 200 -341 305 -35 76 -93 134 -142 143 -29 4 -43 0 -81
-28z"/>
</g>
</svg>
